<?xml version="1.0" encoding="utf-8"?>
<!-- Generator: Adobe Illustrator 24.0.3, SVG Export Plug-In . SVG Version: 6.00 Build 0)  -->
<svg version="1.1" id="Layer_1" xmlns="http://www.w3.org/2000/svg" xmlns:xlink="http://www.w3.org/1999/xlink" x="0px" y="0px"
	 viewBox="0 0 479 207" style="enable-background:new 0 0 479 207;" xml:space="preserve">
<g>
	<path d="M63.44,176.16l4.49,8.79l21.84,7.08l-3.52,10.86L0.08,174.95l3.52-10.86l51.05,16.55l-18.51-35.87l4.26-13.15l17.86,34.59
		l45.32-16.78l-4.5,13.88L63.44,176.16z"/>
	<path d="M43.3,104.83l-10.71-6.8l6.53-10.28l10.71,6.8L43.3,104.83z M122.02,140.84c7.71,4.9,11.57,12.3,5.32,22.16l-4.15,6.53
		l-8.14-5.17l2.58-4.07c2.86-4.5,3.33-6.9-1.81-10.17l-62.44-39.64l5.98-9.43L122.02,140.84z"/>
	<path d="M64.87,74.48l-9.54-8.37l8.03-9.16l9.54,8.37L64.87,74.48z M73.99,81.98l7.53-8.58l49.31,43.25l-7.53,8.58L73.99,81.98z"/>
	<path d="M172.63,44.88c10.6,16.56,8.76,35.36-7.05,45.48c-10.79,6.9-20.61,4.75-26.46-0.39l-0.11,0.07l20.71,32.38l-9.62,6.15
		L101.1,51.95l9.62-6.15l7.18,11.22l0.11-0.07c-2.22-7.47-0.2-17.49,10.6-24.4C144.41,22.43,162.11,28.43,172.63,44.88z
		 M163.02,51.04c-6.91-10.79-18.97-16.93-30.72-9.41c-11.86,7.59-11.24,21.04-4.33,31.84c6.97,10.9,17.35,18.42,30.92,9.73
		C170.97,75.47,169.99,61.94,163.02,51.04z"/>
	<path d="M248.11,32.03l-50.67,9.21c3.32,13.32,12.99,19.69,24.47,17.6c8.61-1.57,15.24-6.25,16.03-14.65l10.98-2
		c-1.12,14.39-10.71,23.35-25.06,25.96c-19.1,3.47-34.22-8.09-37.9-28.31c-3.54-19.47,7.15-35.86,25.37-39.17
		c22.72-4.13,33.14,12.8,36.41,29.35L248.11,32.03z M235.12,25.11c-3.04-11.05-10.62-17.28-22.1-15.19
		c-11.61,2.11-17.61,10.94-17.09,22.32L235.12,25.11z"/>
	<path d="M290.18,9.91c-6.12-1.06-12.86,1.37-13.81,6.87c-1.3,7.5,8.75,11.18,17.15,14.7c9.13,3.78,18.41,10.41,16.54,21.16
		c-2.39,13.75-17.85,17.5-29.1,15.55c-10.87-1.89-24.25-9.37-22.6-25.56l11.25,1.96c0.07,8.51,4.63,12.65,13.38,14.17
		c6.38,1.11,14.41,0.06,15.71-7.44c1.26-7.25-7.59-9.69-15.86-13.19c-7.8-3.29-19.99-10.17-17.8-22.8
		C267.14,3.2,280.83-1.5,292.2,0.48c12.62,2.19,22.58,10.88,21.35,25.34l-11.12-1.93C303.13,15.38,296.68,11.04,290.18,9.91z"/>
	<path d="M350.82,30.83L334.67,65c-2.22,4.7-1.78,9.4,2.47,11.41l3.67,1.73l-3.9,8.26l-4.7-2.22c-10.55-4.99-11.85-15-7.95-23.26
		l16.48-34.87l-8.83-4.17l4.01-8.49l8.83,4.17L351.62,3l11.92,0.02l0.34,0.16l-9.05,19.15l11.36,5.37l-4.01,8.49L350.82,30.83z"/>
	<path d="M364.58,88.35l-8.49,11.71l-11.3-8.19l8.49-11.71L364.58,88.35z"/>
	<path d="M433.18,121.84l-33.2,26.54l-7.13-8.92l32.3-25.82c9.02-7.21,9.49-13.93,3.95-20.86c-6.02-7.53-15.69-10.69-29.07,0.01
		l-27.15,21.71l-7.13-8.92l51.23-40.95l7.13,8.92l-10.4,8.32l0.08,0.1c6.96-3.29,16.9-2.63,23.79,5.99
		C448.36,101.42,443.58,113.52,433.18,121.84z"/>
	<path d="M434.19,142.34c18.47-5.54,36.65,2.51,42.37,21.59c5.72,19.08-5.02,35.81-23.49,41.35c-18.47,5.54-36.53-2.55-42.25-21.63
		C405.1,164.57,415.72,147.88,434.19,142.34z M449.79,194.34c13-3.9,21.21-15.37,17.53-27.64c-3.68-12.27-16.85-17.33-29.86-13.43
		c-12.88,3.87-21.09,15.34-17.41,27.61C423.74,193.15,436.91,198.21,449.79,194.34z"/>
</g>
</svg>
