<?xml version="1.0" encoding="utf-8"?>
<!-- Generator: Adobe Illustrator 24.0.3, SVG Export Plug-In . SVG Version: 6.00 Build 0)  -->
<svg version="1.1" id="Layer_1" xmlns="http://www.w3.org/2000/svg" xmlns:xlink="http://www.w3.org/1999/xlink" x="0px" y="0px"
	 viewBox="0 0 242 202" style="enable-background:new 0 0 242 202;" xml:space="preserve">
<path d="M196.62,56.46c0.32,0.05,0.73,0.14,0.98,0c3.52-1.95,7.03-3.94,10.53-5.93c0.11-0.06,0.12-0.3,0.2-0.48
	c-0.1-0.09-0.2-0.25-0.33-0.29c-1.01-0.3-1.99-0.11-2.95,0.21c-3.41,1.14-6.23,3.2-8.78,5.68c-0.08,0.08-0.05,0.33,0,0.47
	C196.33,56.26,196.48,56.44,196.62,56.46z"/>
<path d="M141.75,75.03c0.16,0.18,0.36,0.33,0.55,0.5c0.08-0.11,0.17-0.23,0.25-0.35c-0.19-0.16-0.38-0.32-0.57-0.48
	C141.9,74.81,141.73,75,141.75,75.03z"/>
<path d="M143.78,68.09c-0.25-0.44-0.46-0.82-0.67-1.19c-0.23,0.15-0.62,0.28-0.65,0.47c-0.05,0.27,0.09,0.68,0.3,0.85
	C142.91,68.34,143.29,68.16,143.78,68.09z"/>
<path style="fill:#FFFF00;" d="M30.51,110.78c1.38,0.18,2.61,0.71,3.84,1.31c1.25,0.6,2.59,0.74,3.97,0.77
	c4.25,0.08,8.51-0.07,12.72,0.71c0.65,0.12,1.37,0.05,2.03-0.07c2.41-0.46,4.72-0.25,7.02,0.6c1.27,0.47,2.63,0.7,3.94,1.07
	c5.73,1.63,11.51,3.14,16.29,6.97c0.13,0.1,0.29,0.17,0.44,0.25c1.19,0.65,2.78-0.04,2.62-1.3c-0.2-1.66,0.35-2.91,1.12-4.29
	c1.31-2.37,3.31-4.33,4.18-6.97c0.14-0.43,0.62-0.83,1.04-1.09c2.11-1.32,4.28-2.05,6.71-0.68c1.33,0.75,2.75,1.35,4.11,2.05
	c0.9,0.47,1.76,1.01,2.66,1.49c0.44,0.23,1.6-0.11,1.86-0.55c0.43-0.73,0.94-1.45,1.19-2.24c0.72-2.34,2.02-4.27,3.73-6.01
	c0.95-0.96,1.76-2.08,2.54-3.18c2.01-2.81,4.26-5.27,7.68-6.43c1.11-0.38,2.13-1.07,3.15-1.67c2.59-1.52,5.37-2.09,8.33-1.73
	c1.01,0.12,2.01,0.33,3.02,0.46c0.67,0.09,1.35,0.12,2.03,0.15c1,0.04,1.68-0.63,1.53-1.55c-0.57-3.69-1.11-7.39-1.77-11.06
	c-0.53-2.97,0.64-5.68,1.15-8.49c0.11-0.59,0.69-1.21,1.21-1.6c3.01-2.29,4.46-6.02,7.59-8.2c0.38-0.27,0.62-0.81,0.8-1.27
	c0.75-1.9,2.17-2.95,4.08-3.53c0.61-0.18,1.29-0.59,1.62-1.1c1.28-1.97,1.76-4.05,0.32-6.19c-0.47-0.7-0.97-1.39-1.45-2.09
	c-0.57-0.84-1.35-1.62-1.65-2.55c-0.81-2.51-2.57-4.34-4.1-6.37c-4.45-5.92-9.97-10.68-15.79-15.12
	c-5.72-4.35-12.17-7.44-18.64-10.49c-0.76-0.36-1.58-0.72-2.4-0.84c-4.05-0.59-7.93-1.9-11.91-2.79c-1.51-0.34-3.02-0.41-4.55-0.49
	c-2.59-0.15-5.08,0.5-7.6,0.83c-4.88,0.65-9.79,1.19-14.46,2.93c-1.27,0.47-2.6,0.8-3.9,1.2c-1.29,0.4-2.68,0.63-3.86,1.24
	c-3.93,2.02-7.84,4.08-11.65,6.31c-3.23,1.89-6.28,4.08-9.44,6.07c-6.38,4.01-11.96,8.95-17.15,14.4
	c-4.97,5.21-7.79,11.47-9.64,18.3c-0.54,1.99-0.7,4.02-0.79,6.08c0.24,2.02,0.42,4.06,0.73,6.07c0.36,2.35,0.93,4.67,1.23,7.03
	c0.64,5.09,1.88,10.01,3.89,14.74c0.33,0.78,0.78,1.56,0.9,2.38c0.36,2.56,1.56,4.85,2.22,7.3c0.73,2.72,2.39,4.85,3.92,7.08
	C27.98,109.76,29.09,110.6,30.51,110.78z M95.98,57.18c0.57-0.57,1.36-1.07,2.14-1.25c2.15-0.49,4.34-0.56,6.48,0.15
	c0.96,0.32,1.89,0.72,2.87,0.94c1.01,0.23,2.09,0.42,2.51,1.45c0.3,0.74,0.18,1.64,0.27,2.47c0.02,0.15,0.13,0.29,0.25,0.53
	c0.54,0.22,1.17,0.45,1.76,0.73c0.67,0.33,0.8,1.25,0.27,1.64c-0.4,0.3-0.78,0.66-1.23,0.87c-2.52,1.23-8.75,1.72-11.41,0.89
	c-1.69-0.52-3-1.51-3.57-3.28c-0.36-1.12-0.83-2.22-1.01-3.37C95.23,58.4,95.56,57.6,95.98,57.18z M83,82.11
	c7.86,0.08,14.48,3.15,20.25,8.33c1.87,1.68,2.58,3.93,3.18,6.23c0.22,0.84-0.51,1.92-1.52,2.44c-0.66,0.33-1.32,0.28-1.93-0.1
	c-0.43-0.27-0.91-0.54-1.19-0.94c-1.88-2.66-4.74-3.77-7.59-4.89c-3.18-1.24-6.53-1.85-9.88-2.38c-2.77-0.43-5.39,0.36-8.01,1.1
	c-0.81,0.23-1.56,0.72-2.37,0.92c-3.62,0.9-5.8,3.32-7.2,6.62c-0.46,1.09-1,2.16-1.48,3.24c-0.25,0.56,0.15,1.5,0.73,1.66
	c1.14,0.31,2.29,0.57,3.43,0.87c0.44,0.11,0.61,0.92,0.32,1.31c-0.1,0.13-0.16,0.31-0.28,0.42c-0.76,0.67-1.47,1.42-2.31,1.97
	c-1.58,1.03-3.2,0.76-4.68-0.47c-2.24-1.86-3.16-4.37-3.59-7.11c-0.1-0.63,0.09-1.34,0.25-1.98c0.32-1.32,0.91-2.61,1.01-3.94
	c0.3-4.07,3.11-6.23,6.04-8.3c0.96-0.68,2.13-1.06,3.13-1.69C73.52,82.77,78.17,82.08,83,82.11z M53.68,59.12
	c0.83-0.11,1.67-0.2,2.51-0.25c2.18-0.12,4.28,0.6,6.53,0.28c1.83-0.26,3.59,0.86,4.9,2.26c0.42,0.45,0.62,1.17,0.76,1.8
	c0.11,0.47-0.01,1-0.06,1.51c-0.53,5.42-0.54,5.42-5.73,3.78c-1.54,0.85-2.67,1.57-3.88,2.13c-0.97,0.45-2.21,0.03-2.66-0.84
	c-1.17-2.24-2.35-4.48-3.39-6.78c-0.32-0.72-0.22-1.65-0.24-2.48C52.41,59.94,53.11,59.2,53.68,59.12z"/>
<path d="M27.1,122.96c1.53,0.26,3.01,0.09,4.5-0.37c2.43-0.74,4.91-1.32,7.33-2.07c0.95-0.29,1.81-0.87,2.7-1.35
	c0.11-0.06,0.23-0.32,0.19-0.41c-0.13-0.26-0.3-0.64-0.52-0.68c-0.66-0.14-1.34-0.14-2.64-0.25c-1.24,0.21-3.11,0.37-4.89,0.86
	c-1.79,0.49-3.49,1.29-5.21,2.01c-0.61,0.26-1.18,0.66-1.68,1.09c-0.19,0.16-0.18,0.6-0.18,0.91
	C26.7,122.78,26.95,122.93,27.1,122.96z"/>
<path d="M124.98,167.8c-0.65-0.57-1.79-0.39-2.12,0.41c-0.38,0.93-0.92,1.89-0.95,2.84c-0.06,2.64-1,4.97-2.32,7.13
	c-1.16,1.9-2,3.89-2.36,5.32c-0.5,1.3-0.75,1.93-0.98,2.56c-0.11,0.31-0.2,0.64-0.24,0.97c-0.02,0.14,0.08,0.4,0.16,0.42
	c0.29,0.05,0.7,0.14,0.86-0.01c5-4.44,7.3-10.39,9.21-16.54C126.63,169.66,125.93,168.63,124.98,167.8z"/>
<path style="fill:#878787;" d="M226.57,120.67c-2.81-1.86-5.96-3.16-9.54-3.15c-2.53,0.01-5.07-0.31-7.59-0.64
	c-2.7-0.36-4.84-1.58-5.69-4.41c-0.24-0.79,0.09-1.9,0.78-2.22c0.77-0.36,1.6-0.6,2.34-1.01c1.03-0.58,2.11-1.15,2.96-1.94
	c4.17-3.85,7.56-8.28,9.83-13.52c3.19-7.37,5.43-15.03,6.98-22.89c0.73-3.69,0.71-7.46,0.24-11.19c-0.43-3.42-2.21-5.19-5.56-5.69
	c-0.81-0.12-1.69,0-2.5,0.18c-1.83,0.39-3.62,0.95-5.45,1.32c-1.35,0.28-2.62,0.69-3.8,1.42c-0.72,0.45-1.47,0.89-2.26,1.18
	c-1.91,0.72-4.02,1.07-5.74,2.09c-1.71,1.02-3.15,2.54-4.81,3.72c-1.29,0.91-2.46,1.01-3.77,0.21c-0.29-0.18-0.59-0.35-0.9-0.49
	c-0.76-0.33-1.31-0.2-1.77,0.45c-0.39,0.55-0.7,1.17-1.11,1.7c-0.62,0.78-2.13,0.69-2.69-0.12c-0.19-0.28-0.37-0.57-0.54-0.86
	c-0.87-1.49-1.4-3.07-1.71-4.77c-0.54-2.91-2.51-5-4.99-6.1c-3.73-1.66-7.71-2.63-11.89-1.25c-2.36,0.78-4.34,1.9-5.45,4.22
	c-0.22,0.46-0.45,0.92-0.71,1.36c-1.24,2.05-1.93,2.17-4.02,0.77c-0.27-0.18-0.6-0.29-1.37-0.66c-1.38,1.56-2.54,3.03-3.86,4.33
	c-1.61,1.58-2.69,3.44-3.68,5.44c-2.79,5.7-3.49,11.66-2.67,17.88c0.24,1.85,0.49,3.72,0.5,5.58c0.02,2.06,0.1,4.06,0.97,5.98
	c0.25,0.56,0.15,1.33,0.06,1.99c-0.14,1.02-1.49,1.79-2.33,1.31c-1.02-0.58-2.14-1.15-2.91-2c-1.72-1.9-3.91-2.57-6.3-3.02
	c-1.61-0.3-3.01,0.47-4.51,0.56c-2.67,0.15-4.93,1.26-7.01,2.8c-3.86,2.85-7.18,6.25-10.14,10.01c-0.31,0.4-0.5,0.89-0.76,1.33
	c-1.74,3.01-2.66,6.25-2.65,9.72c0,1.38-0.06,2.7-0.83,3.92c-0.89,1.4-2.92,1.6-3.88,0.26c-0.69-0.96-1.34-1.98-1.82-3.06
	c-1.3-2.97-3.6-3.89-6.64-3.47c-0.67,0.09-1.36,0.14-2.01,0.31c-0.48,0.12-0.99,0.32-1.38,0.63c-2.29,1.81-4.26,3.91-5.43,6.63
	c-0.19,0.45-0.3,1.02-0.21,1.49c0.42,2.2,0.94,4.36,3.26,5.43c0.75,0.35,0.75,1.07,0.78,1.74c0.06,1.16-0.62,1.91-1.54,2.44
	c-0.83,0.48-1.62,0.19-2.37-0.3c-1.88-1.25-3.37-2.86-4.5-4.8c-1.75-3.01-4.51-5.06-6.99-7.38c-0.48-0.45-1.14-0.73-1.76-1.01
	c-4.97-2.25-10.19-3.75-15.51-4.88c-0.47-0.1-1.17-0.09-1.46,0.19c-1.17,1.09-2.69,1.37-4.04,2.03c-0.11,0.05-0.09,0.65,0.05,0.86
	c0.54,0.75,1.45,0.89,2.27,1.01c4.2,0.64,8.38,1.39,12.61,1.74c3.05,0.25,5.58,1.45,7.91,3.19c2.06,1.53,3.71,3.5,5.19,5.58
	c0.18,0.25,0.24,0.65,0.2,0.96c-0.04,0.31-0.2,0.69-0.44,0.85c-0.23,0.15-0.72,0.2-0.92,0.05c-0.82-0.59-1.64-1.22-2.34-1.95
	c-1.34-1.38-2.9-2.2-4.75-2.81c-2.91-0.97-5.85-1.73-8.85-2.35c-1.65-0.34-3.15-1.23-4.96-0.92c-1.84,0.31-3.64-0.83-5.55-0.25
	c-0.61,0.19-1.36,0.08-2.01-0.06c-2.38-0.51-4.74-0.39-7.09,0.15c-1.34,0.31-2.68,0.45-4.03,0.03c-0.48-0.15-1.04-0.29-1.5-0.18
	c-2.96,0.75-6.14-0.01-9.01,1.4c-0.59,0.29-1.32,0.31-1.99,0.43c-2.71,0.48-5.3,1.15-7.14,3.46c-0.29,0.37-0.93,0.44-1.3,0.77
	c-1.15,1-2.27,2.04-3.34,3.12c-0.67,0.67-0.29,2.21,0.59,2.65c0.61,0.3,1.23,0.58,1.86,0.83c6,2.37,12.19,4.35,17.34,8.47
	c0.79,0.63,1.8,0.97,2.65,1.52c0.56,0.37,1.05,0.86,1.52,1.35c0.82,0.84,0.89,2.28,0.21,3.3c-0.86,1.29-2.1,1.74-3.53,1.23
	c-0.8-0.29-1.57-0.66-2.36-0.97c-1.43-0.55-2.84-1.17-4.3-1.61c-3.78-1.14-7.41-0.83-10.75,1.43c-1.55,1.05-3.09,2.12-4.58,3.25
	c-2.33,1.76-4.28,3.88-5.84,6.35c-2.49,3.95-2.17,5.51,1.54,8.7c0.39,0.33,0.82,0.62,1.26,0.87c3.76,2.1,7.67,3.57,12.09,3.54
	c4.96-0.03,9.8-0.96,14.68-1.66c0.84-0.12,1.68-0.3,2.5-0.5c4.57-1.07,8.65-3.05,11.88-6.55c0.23-0.25,0.48-0.49,0.73-0.72
	c0.65-0.6,1.5-0.65,2.34-0.14c0.15,0.09,0.29,0.18,0.44,0.26c2.17,1.29,3.56,2.87,3.5,5.71c-0.08,3.22,1.72,5.81,3.97,8.01
	c0.85,0.83,1.89,1.47,2.7,2.33c3.32,3.54,7.36,6.03,11.62,8.2c1.2,0.61,2.51,1.03,3.81,1.43c4.32,1.33,8.76,1.17,13.17,0.76
	c2.56-0.24,4.98-1.14,6.99-2.86c1.8-1.55,3.66-3.05,5.34-4.73c1.32-1.31,2.35-2.86,3.07-4.65c1.09-2.68,2.42-5.26,3.63-7.88
	c1.51-3.26,2.62-6.64,3.06-10.22c0.12-1.01,0.33-2.01,0.56-3c0.23-0.95,1.77-1.52,2.52-0.89c1.29,1.09,2.53,2.26,3.73,3.45
	c1.21,1.19,2.25,2.57,3.53,3.67c2.19,1.88,4.47,3.66,6.78,5.39c2.17,1.62,4.26,3.39,6.91,4.28c0.79,0.27,1.5,0.8,2.25,1.19
	c3.62,1.89,7.23,3.81,10.87,5.66c3.97,2.01,8.44,2.58,12.53,4.25c0.15,0.06,0.33,0.08,0.5,0.08c3.93,0.19,7.72,1.28,11.59,1.78
	c1.84,0.24,3.76,0.48,5.58,0.24c4.9-0.65,9.63-2.04,14.2-3.93c2.66-1.1,4.44-3.03,5.54-5.68c1.36-3.3,1.25-6.64,0.38-10.01
	c-0.42-1.65-0.89-3.29-1.48-4.88c-1.18-3.2-2.51-6.24-5.55-8.32c-1.67-1.14-3.15-2.56-4.99-3.49c-1.12-0.56-1.75-1.57-2.21-2.71
	c-0.46-1.14-0.17-2.39,0.79-3.25c0.68-0.61,1.51-0.72,2.38-0.69c3.74,0.12,7.48,0.35,11.22,0.35c7.91,0,15.11-2.17,21.28-7.29
	c1.05-0.87,2.17-1.65,3.23-2.5c1.6-1.29,3.03-2.74,4.13-4.49c0.48-0.77,0.66-1.57,0.28-2.42
	C233.17,126.05,230.12,123.03,226.57,120.67z"/>
<path d="M156,186.64c-0.32,0.23-0.58,0.38-0.78,0.59c-0.05,0.06,0.04,0.32,0.13,0.45c0.42,0.61,1.03,0.75,1.72,0.61
	c0.14-0.03,0.36-0.18,0.36-0.27c-0.01-0.28-0.02-0.69-0.19-0.82C156.87,186.93,156.39,186.8,156,186.64z"/>
<g>
	<path d="M178,197.71c-2.38-0.1-4.76-0.19-7.14-0.31c-0.68-0.04-1.38-0.09-2.01-0.3c-4.03-1.34-8.17-2.38-11.98-4.34
		c-2.72-1.4-5.42-2.86-8.22-4.1c-5.34-2.36-10.11-5.57-14.62-9.22c-0.66-0.53-1.32-1.07-2.01-1.56c-0.78-0.55-2.2-0.21-2.67,0.7
		c-1.17,2.27-2.42,4.51-3.36,6.87c-1.3,3.26-3.37,5.88-6.03,8.08c-1.05,0.87-2.18,1.64-3.21,2.51c-1.34,1.13-2.93,1.79-4.58,2.16
		c-2.81,0.64-5.61,1.43-8.54,1.38c-3.09-0.06-6.15,0.33-9.07,1.24c-5.85,1.84-11.14,0.16-16.16-2.54c-4.5-2.42-8.43-5.73-12.32-9.02
		c-2.1-1.77-3.7-3.98-5.28-6.2c-1.18-1.66-2.36-3.33-3.6-4.95c-0.57-0.75-1.48-0.95-2.3-0.65c-1.43,0.52-2.81,1.18-4.19,1.83
		c-3.23,1.52-6.46,2.95-10,3.7c-2.7,0.57-5.42,0.46-8.12,0.63c-2.03,0.13-4.06,0.16-6.09,0.45c-3.9,0.56-7.78,0.43-11.64-0.56
		c-1.55-0.4-2.88-0.98-3.97-2.12c-2.82-2.95-5.52-5.97-6.99-9.91c-0.71-1.9-1.77-3.68-2.69-5.5c-0.97-1.92-1.01-3.91-0.59-5.97
		c0.64-3.15,2.22-5.68,4.83-7.55c1.65-1.18,3.22-2.44,5.32-2.9c2.06-0.45,3.39-2.15,4.93-3.46c0.15-0.13,0.14-0.77-0.03-0.91
		c-0.75-0.67-1.62-1.21-2.38-1.87c-0.64-0.55-1.35-1.1-1.75-1.81c-1.57-2.76-1.79-5.79-1.39-8.87c0.11-0.83,0.52-1.62,0.75-2.43
		c0.38-1.34,1-2.5,2.14-3.38c0.8-0.62,1.66-1.29,2.19-2.13c1.68-2.67,4.43-4.2,6.57-6.37c0.68-0.69,1.75-0.98,2.64-1.45
		c0.6-0.31,1.21-0.59,1.79-0.94c0.74-0.45,0.97-1.61,0.48-2.24c-0.21-0.27-0.42-0.53-0.65-0.78c-2.56-2.77-4.61-5.83-5.97-9.38
		c-1.22-3.17-2.82-6.18-3.69-9.49c-0.21-0.8-0.79-1.5-1.1-2.28c-0.31-0.78-0.66-1.6-0.71-2.42c-0.19-3.42-1.28-6.67-1.87-10.01
		c-0.35-1.98-1.44-3.88-0.73-5.99c-0.4-1.99-1.91-3.63-1.83-5.78c-1.48-5.75-0.8-11.45,0.46-17.12c0.18-0.81,0.63-1.57,1.02-2.32
		c1.41-2.71,2.83-5.43,4.31-8.1c0.4-0.73,0.94-1.47,1.6-1.94c1.83-1.31,3.31-2.92,4.58-4.74c1.49-2.12,3.4-3.77,5.56-5.18
		c2.27-1.49,4.8-2.76,6.69-4.65c2.47-2.48,5.54-3.92,8.38-5.73c1.84-1.18,3.95-1.92,5.82-3.11c2.57-1.63,5.12-3.22,8.1-4.17
		c2.22-0.7,4.4-1.95,6.19-3.45c2.51-2.1,5.5-2.68,8.43-3.34c5.13-1.15,10.34-1.96,15.52-2.87c1.17-0.2,2.36-0.25,3.55-0.3
		c1.19-0.05,2.44,0.2,3.56-0.07c2.46-0.6,4.69-0.04,6.96,0.8c1.91,0.71,3.9,1.11,5.94,1.4c2,0.28,4,0.88,5.87,1.65
		c3.93,1.61,7.78,3.41,11.65,5.17c0.61,0.28,1.2,0.65,1.73,1.07c4.55,3.57,9.16,7.06,13.58,10.78c4.99,4.2,8.84,9.39,12.17,14.97
		c1.74,2.92,3.33,5.93,5.01,8.89c0.42,0.74,0.89,1.44,1.37,2.14c0.35,0.5,1.3,0.79,1.83,0.58c0.32-0.12,0.62-0.27,0.92-0.43
		c4.79-2.54,9.85-2.47,14.92-1.31c4.32,0.98,8.51,2.34,11.98,5.33c1.26,1.09,2.81,1.11,4.28,0.2c0.72-0.45,1.52-0.81,2.16-1.35
		c3.74-3.21,8.3-4.54,12.93-5.65c1.97-0.47,4.04-0.7,6.07-0.76c2.92-0.09,5.74,0.44,8.28,2.06c2.02,1.29,3.91,2.68,5.25,4.74
		c1.2,1.85,2.57,3.59,3.78,5.44c0.46,0.7,0.81,1.51,1.03,2.32c0.9,3.29,1.65,6.61,1.44,10.06c-0.03,0.51-0.06,1.02-0.08,1.53
		c-0.13,3.56,0.04,7.16-1.17,10.61c-1.18,3.37-1.55,6.97-3.01,10.26c-0.41,0.91-0.6,1.94-0.77,2.94c-0.51,2.88-1.25,5.65-3.36,7.85
		c-1.01,2.39-2.59,4.36-4.53,6.05c-0.76,0.66-1.65,1.17-2.46,1.79c-0.68,0.52-0.52,1.81,0.26,2.13c0.94,0.39,1.88,0.82,2.86,1.08
		c4.92,1.31,8.92,4.14,12.47,7.63c1.93,1.9,3.62,4.06,5.36,6.14c0.54,0.65,0.9,1.44,1.38,2.14c2.2,3.22,1.77,6.24-0.25,9.47
		c-2.81,4.5-6.81,7.52-11.28,10.05c-1.93,1.09-3.85,2.15-5.6,3.53c-0.92,0.72-2.04,1.23-3.14,1.66c-2.37,0.93-4.77,1.79-7.19,2.58
		c-0.78,0.25-1.66,0.18-2.5,0.23c-0.84,0.05-1.68,0.04-2.52,0.09c-0.38,0.02-0.88,0.88-0.7,1.19c0.33,0.58,0.62,1.21,1.05,1.72
		c1.33,1.59,2.32,3.38,3,5.31c1.14,3.2,2.21,6.43,3.19,9.69c0.34,1.12,0.4,2.34,0.41,3.52c0.02,1.39-0.41,2.68-1.41,3.73
		c-0.59,0.62-1.24,1.19-1.72,1.88c-3.43,4.92-8.36,7.77-13.62,10.34c-3.73,1.83-7.83,2.22-11.64,3.63c-0.77,0.28-1.68,0.2-2.53,0.21
		c-1.87,0.03-3.74,0.01-5.61,0.01C178,197.61,178,197.66,178,197.71z M155.86,58.38c-1.38,1.56-2.54,3.03-3.86,4.33
		c-1.61,1.58-2.69,3.44-3.68,5.44c-2.79,5.7-3.49,11.66-2.67,17.88c0.24,1.85,0.49,3.72,0.5,5.58c0.02,2.06,0.1,4.06,0.97,5.98
		c0.25,0.56,0.15,1.33,0.06,1.99c-0.14,1.02-1.49,1.79-2.33,1.31c-1.02-0.58-2.14-1.15-2.91-2c-1.72-1.9-3.91-2.57-6.3-3.02
		c-1.61-0.3-3.01,0.47-4.51,0.56c-2.67,0.15-4.93,1.26-7.01,2.8c-3.86,2.85-7.18,6.25-10.14,10.01c-0.31,0.4-0.5,0.89-0.76,1.33
		c-1.74,3.01-2.66,6.25-2.65,9.72c0,1.38-0.06,2.7-0.83,3.92c-0.89,1.4-2.92,1.6-3.88,0.26c-0.69-0.96-1.34-1.98-1.82-3.06
		c-1.3-2.97-3.6-3.89-6.64-3.47c-0.67,0.09-1.36,0.14-2.01,0.31c-0.48,0.12-0.99,0.32-1.38,0.63c-2.29,1.81-4.26,3.91-5.43,6.63
		c-0.19,0.45-0.3,1.02-0.21,1.49c0.42,2.2,0.94,4.36,3.26,5.43c0.75,0.35,0.75,1.07,0.78,1.74c0.06,1.16-0.62,1.91-1.54,2.44
		c-0.83,0.48-1.62,0.19-2.37-0.3c-1.88-1.25-3.37-2.86-4.5-4.8c-1.75-3.01-4.51-5.06-6.99-7.38c-0.48-0.45-1.14-0.73-1.76-1.01
		c-4.97-2.25-10.19-3.75-15.51-4.88c-0.47-0.1-1.17-0.09-1.46,0.19c-1.17,1.09-2.69,1.37-4.04,2.03c-0.11,0.05-0.09,0.65,0.05,0.86
		c0.54,0.75,1.45,0.89,2.27,1.01c4.2,0.64,8.38,1.39,12.61,1.74c3.05,0.25,5.58,1.45,7.91,3.19c2.06,1.53,3.71,3.5,5.19,5.58
		c0.18,0.25,0.24,0.65,0.2,0.96c-0.04,0.31-0.2,0.69-0.44,0.85c-0.23,0.15-0.72,0.2-0.92,0.05c-0.82-0.59-1.64-1.22-2.34-1.95
		c-1.34-1.38-2.9-2.2-4.75-2.81c-2.91-0.97-5.85-1.73-8.85-2.35c-1.65-0.34-3.15-1.23-4.96-0.92c-1.84,0.31-3.64-0.83-5.55-0.25
		c-0.61,0.19-1.36,0.08-2.01-0.06c-2.38-0.51-4.74-0.39-7.09,0.15c-1.34,0.31-2.68,0.45-4.03,0.03c-0.48-0.15-1.04-0.29-1.5-0.18
		c-2.96,0.75-6.14-0.01-9.01,1.4c-0.59,0.29-1.32,0.31-1.99,0.43c-2.7,0.48-5.3,1.15-7.14,3.46c-0.29,0.37-0.93,0.44-1.3,0.77
		c-1.15,1-2.27,2.04-3.35,3.12c-0.66,0.67-0.29,2.21,0.6,2.65c0.61,0.3,1.23,0.58,1.86,0.83c6,2.37,12.19,4.35,17.34,8.47
		c0.79,0.63,1.8,0.97,2.65,1.52c0.56,0.37,1.05,0.86,1.52,1.35c0.82,0.84,0.89,2.28,0.21,3.3c-0.86,1.29-2.1,1.74-3.53,1.23
		c-0.8-0.29-1.57-0.66-2.36-0.97c-1.43-0.55-2.84-1.17-4.3-1.61c-3.78-1.14-7.41-0.83-10.75,1.43c-1.55,1.05-3.09,2.12-4.58,3.25
		c-2.33,1.76-4.28,3.88-5.84,6.35c-2.49,3.95-2.18,5.51,1.54,8.7c0.39,0.33,0.82,0.62,1.26,0.87c3.76,2.1,7.67,3.57,12.09,3.54
		c4.96-0.03,9.8-0.96,14.68-1.66c0.84-0.12,1.68-0.3,2.5-0.5c4.57-1.07,8.65-3.05,11.88-6.55c0.23-0.25,0.48-0.49,0.73-0.72
		c0.65-0.6,1.5-0.65,2.34-0.14c0.15,0.09,0.29,0.18,0.44,0.26c2.17,1.29,3.56,2.87,3.5,5.71c-0.08,3.22,1.72,5.81,3.97,8.01
		c0.85,0.83,1.89,1.47,2.7,2.33c3.32,3.54,7.36,6.03,11.62,8.2c1.2,0.61,2.51,1.03,3.81,1.43c4.32,1.33,8.76,1.17,13.17,0.76
		c2.56-0.24,4.98-1.14,6.99-2.86c1.8-1.55,3.66-3.05,5.34-4.73c1.32-1.31,2.35-2.86,3.07-4.65c1.09-2.68,2.42-5.26,3.63-7.88
		c1.51-3.26,2.62-6.64,3.06-10.22c0.12-1.01,0.33-2.01,0.56-3c0.23-0.95,1.77-1.52,2.52-0.89c1.29,1.09,2.53,2.26,3.73,3.45
		c1.21,1.19,2.25,2.57,3.53,3.67c2.19,1.88,4.47,3.66,6.78,5.39c2.17,1.62,4.26,3.39,6.91,4.28c0.79,0.27,1.5,0.8,2.25,1.19
		c3.62,1.89,7.23,3.81,10.87,5.66c3.97,2.01,8.44,2.58,12.53,4.25c0.15,0.06,0.33,0.08,0.5,0.08c3.93,0.19,7.72,1.28,11.59,1.78
		c1.84,0.24,3.76,0.48,5.58,0.24c4.9-0.65,9.63-2.04,14.2-3.93c2.66-1.1,4.44-3.03,5.54-5.68c1.36-3.3,1.25-6.64,0.38-10.01
		c-0.42-1.65-0.89-3.29-1.48-4.88c-1.18-3.2-2.51-6.24-5.55-8.32c-1.67-1.14-3.15-2.56-4.99-3.49c-1.12-0.56-1.75-1.57-2.21-2.71
		c-0.46-1.14-0.17-2.39,0.79-3.25c0.68-0.61,1.51-0.72,2.37-0.69c3.74,0.12,7.48,0.35,11.22,0.35c7.91,0,15.11-2.17,21.28-7.29
		c1.05-0.87,2.17-1.65,3.23-2.5c1.6-1.29,3.03-2.74,4.13-4.49c0.48-0.77,0.66-1.57,0.28-2.42c-1.79-4.03-4.84-7.04-8.4-9.4
		c-2.81-1.86-5.96-3.16-9.54-3.15c-2.53,0.01-5.07-0.31-7.59-0.64c-2.7-0.36-4.84-1.58-5.69-4.41c-0.24-0.79,0.09-1.9,0.78-2.22
		c0.77-0.36,1.6-0.6,2.34-1.01c1.03-0.58,2.11-1.15,2.96-1.94c4.17-3.85,7.56-8.28,9.83-13.52c3.19-7.37,5.43-15.03,6.98-22.89
		c0.73-3.69,0.71-7.46,0.24-11.19c-0.43-3.42-2.21-5.19-5.56-5.69c-0.81-0.12-1.69,0-2.5,0.18c-1.83,0.39-3.62,0.95-5.45,1.32
		c-1.35,0.28-2.62,0.69-3.8,1.42c-0.72,0.45-1.47,0.89-2.26,1.18c-1.91,0.72-4.02,1.07-5.74,2.09c-1.71,1.02-3.14,2.54-4.81,3.72
		c-1.29,0.91-2.46,1.01-3.77,0.21c-0.29-0.18-0.59-0.35-0.9-0.49c-0.76-0.33-1.31-0.2-1.78,0.45c-0.39,0.55-0.7,1.17-1.11,1.7
		c-0.62,0.78-2.13,0.69-2.69-0.12c-0.19-0.28-0.37-0.57-0.54-0.86c-0.87-1.49-1.4-3.07-1.71-4.77c-0.54-2.91-2.51-5-4.99-6.1
		c-3.73-1.66-7.71-2.63-11.89-1.25c-2.36,0.78-4.34,1.9-5.45,4.22c-0.22,0.46-0.45,0.92-0.71,1.36c-1.24,2.05-1.93,2.17-4.02,0.77
		C156.95,58.85,156.63,58.74,155.86,58.38z M14.29,64c0.24,2.02,0.42,4.06,0.73,6.07c0.36,2.35,0.93,4.67,1.23,7.03
		c0.64,5.09,1.88,10.01,3.89,14.74c0.33,0.78,0.78,1.56,0.9,2.38c0.36,2.56,1.56,4.85,2.22,7.3c0.73,2.72,2.39,4.85,3.92,7.08
		c0.79,1.15,1.91,1.99,3.33,2.18c1.38,0.18,2.61,0.71,3.84,1.31c1.25,0.6,2.59,0.74,3.97,0.77c4.25,0.08,8.51-0.07,12.72,0.71
		c0.65,0.12,1.37,0.05,2.03-0.07c2.41-0.46,4.72-0.25,7.02,0.6c1.27,0.47,2.63,0.7,3.94,1.07c5.73,1.63,11.51,3.14,16.29,6.97
		c0.13,0.1,0.29,0.17,0.44,0.25c1.19,0.65,2.78-0.04,2.62-1.3c-0.2-1.66,0.36-2.91,1.12-4.29c1.31-2.37,3.31-4.33,4.18-6.97
		c0.14-0.43,0.62-0.83,1.04-1.09c2.11-1.32,4.29-2.05,6.71-0.68c1.33,0.75,2.75,1.35,4.11,2.05c0.9,0.47,1.76,1.01,2.66,1.49
		c0.44,0.23,1.6-0.11,1.86-0.55c0.43-0.73,0.94-1.45,1.18-2.24c0.72-2.34,2.02-4.27,3.73-6.01c0.95-0.96,1.76-2.08,2.54-3.18
		c2.01-2.81,4.26-5.27,7.68-6.42c1.11-0.38,2.13-1.07,3.15-1.67c2.59-1.52,5.37-2.09,8.33-1.73c1.01,0.12,2.01,0.33,3.02,0.46
		c0.67,0.09,1.35,0.12,2.03,0.14c1,0.04,1.68-0.63,1.53-1.55c-0.57-3.69-1.11-7.39-1.77-11.06c-0.53-2.97,0.64-5.68,1.15-8.49
		c0.11-0.59,0.69-1.21,1.21-1.61c3.01-2.29,4.46-6.02,7.59-8.2c0.38-0.27,0.62-0.81,0.8-1.27c0.75-1.9,2.17-2.95,4.08-3.53
		c0.61-0.18,1.29-0.59,1.62-1.1c1.28-1.97,1.76-4.05,0.32-6.19c-0.47-0.7-0.97-1.39-1.45-2.09c-0.57-0.84-1.35-1.62-1.65-2.55
		c-0.81-2.51-2.57-4.34-4.1-6.37c-4.45-5.92-9.97-10.68-15.8-15.12c-5.72-4.35-12.17-7.44-18.64-10.49
		c-0.76-0.36-1.58-0.72-2.4-0.84c-4.05-0.59-7.93-1.9-11.91-2.79c-1.51-0.34-3.02-0.41-4.55-0.49c-2.59-0.15-5.08,0.5-7.6,0.83
		c-4.88,0.65-9.79,1.19-14.46,2.93c-1.27,0.47-2.6,0.8-3.9,1.2c-1.3,0.4-2.68,0.63-3.86,1.24c-3.93,2.02-7.84,4.08-11.65,6.31
		c-3.23,1.89-6.28,4.08-9.44,6.07c-6.38,4.01-11.96,8.95-17.15,14.4c-4.97,5.21-7.79,11.47-9.64,18.3
		C14.54,59.91,14.38,61.94,14.29,64z M117.24,183.5c-0.5,1.3-0.75,1.93-0.98,2.56c-0.11,0.31-0.2,0.64-0.24,0.97
		c-0.02,0.14,0.08,0.4,0.16,0.42c0.29,0.05,0.7,0.14,0.86-0.01c5-4.44,7.3-10.39,9.21-16.54c0.38-1.23-0.31-2.27-1.26-3.1
		c-0.65-0.57-1.79-0.39-2.12,0.41c-0.38,0.93-0.92,1.89-0.95,2.84c-0.06,2.64-1,4.97-2.32,7.13
		C118.43,180.08,117.6,182.07,117.24,183.5z M38.66,117.83c-1.24,0.21-3.11,0.37-4.89,0.86c-1.79,0.49-3.49,1.29-5.21,2.01
		c-0.61,0.26-1.18,0.66-1.68,1.09c-0.19,0.16-0.18,0.6-0.18,0.91c0,0.09,0.25,0.24,0.41,0.27c1.53,0.26,3.01,0.09,4.5-0.37
		c2.43-0.74,4.91-1.32,7.33-2.07c0.95-0.29,1.81-0.87,2.7-1.35c0.11-0.06,0.23-0.32,0.18-0.41c-0.13-0.26-0.3-0.64-0.52-0.68
		C40.64,117.94,39.96,117.94,38.66,117.83z M208.33,50.04c-0.1-0.09-0.2-0.25-0.33-0.29c-1.01-0.3-1.99-0.11-2.95,0.21
		c-3.41,1.14-6.23,3.2-8.78,5.68c-0.08,0.08-0.05,0.33,0,0.47c0.06,0.14,0.21,0.32,0.35,0.35c0.32,0.05,0.73,0.14,0.98,0
		c3.52-1.95,7.03-3.94,10.53-5.93C208.24,50.46,208.26,50.23,208.33,50.04z M156,186.64c-0.32,0.23-0.58,0.38-0.78,0.59
		c-0.05,0.06,0.04,0.32,0.13,0.45c0.42,0.61,1.03,0.75,1.72,0.61c0.14-0.03,0.36-0.18,0.36-0.27c-0.01-0.28-0.02-0.69-0.19-0.82
		C156.87,186.93,156.39,186.8,156,186.64z M143.78,68.09c-0.25-0.44-0.46-0.82-0.67-1.19c-0.23,0.15-0.62,0.28-0.65,0.47
		c-0.05,0.27,0.09,0.68,0.3,0.85C142.91,68.34,143.29,68.16,143.78,68.09z M142.56,75.18c-0.19-0.16-0.38-0.32-0.57-0.48
		c-0.08,0.12-0.26,0.31-0.24,0.34c0.16,0.18,0.36,0.33,0.55,0.5C142.38,75.41,142.47,75.29,142.56,75.18z"/>
	<path d="M83,82.11c7.86,0.08,14.48,3.15,20.25,8.33c1.87,1.68,2.58,3.93,3.18,6.23c0.22,0.84-0.51,1.92-1.52,2.44
		c-0.66,0.33-1.32,0.28-1.93-0.1c-0.43-0.27-0.91-0.54-1.19-0.94c-1.88-2.66-4.74-3.77-7.59-4.89c-3.18-1.24-6.53-1.85-9.88-2.38
		c-2.77-0.43-5.39,0.36-8.01,1.1c-0.81,0.23-1.56,0.72-2.37,0.92c-3.62,0.9-5.8,3.32-7.2,6.62c-0.46,1.09-1,2.16-1.48,3.24
		c-0.25,0.56,0.15,1.5,0.73,1.66c1.14,0.31,2.29,0.57,3.43,0.87c0.44,0.11,0.61,0.92,0.32,1.31c-0.1,0.13-0.16,0.31-0.28,0.42
		c-0.76,0.67-1.47,1.42-2.31,1.97c-1.58,1.03-3.2,0.76-4.68-0.47c-2.24-1.86-3.16-4.37-3.59-7.11c-0.1-0.63,0.09-1.34,0.25-1.98
		c0.32-1.32,0.91-2.61,1.01-3.94c0.3-4.07,3.11-6.23,6.04-8.3c0.96-0.68,2.13-1.06,3.13-1.69C73.52,82.77,78.17,82.08,83,82.11z"/>
	<path d="M62.6,68.51c-1.54,0.85-2.67,1.57-3.88,2.13c-0.97,0.45-2.21,0.03-2.66-0.84c-1.17-2.24-2.35-4.48-3.39-6.78
		c-0.32-0.72-0.22-1.65-0.24-2.48c-0.01-0.6,0.68-1.34,1.26-1.41c0.83-0.11,1.67-0.2,2.51-0.25c2.18-0.12,4.28,0.6,6.53,0.28
		c1.83-0.26,3.59,0.86,4.9,2.26c0.42,0.45,0.62,1.17,0.76,1.8c0.11,0.47-0.01,1-0.06,1.51C67.79,70.14,67.79,70.14,62.6,68.51z"/>
	<path d="M110.5,61.47c0.54,0.22,1.17,0.45,1.76,0.73c0.67,0.33,0.8,1.25,0.27,1.64c-0.4,0.3-0.78,0.66-1.23,0.87
		c-2.52,1.23-8.75,1.72-11.41,0.89c-1.69-0.52-3-1.51-3.57-3.28c-0.36-1.12-0.83-2.22-1.01-3.37c-0.08-0.57,0.25-1.37,0.67-1.79
		c0.57-0.57,1.36-1.07,2.14-1.25c2.15-0.49,4.34-0.56,6.48,0.15c0.96,0.32,1.89,0.72,2.87,0.94c1.01,0.23,2.09,0.42,2.51,1.45
		c0.3,0.74,0.18,1.64,0.27,2.47C110.27,61.09,110.38,61.23,110.5,61.47z"/>
</g>
</svg>
