<?xml version="1.0" encoding="utf-8"?>
<!-- Generator: Adobe Illustrator 24.0.3, SVG Export Plug-In . SVG Version: 6.00 Build 0)  -->
<svg version="1.1" id="Layer_1" xmlns="http://www.w3.org/2000/svg" xmlns:xlink="http://www.w3.org/1999/xlink" x="0px" y="0px"
	 viewBox="0 0 273 219" style="enable-background:new 0 0 273 219;" xml:space="preserve">
<g>
	<path d="M46.79,173.96c0.22,2.83,0.01,5.33,0.51,7.79c0.88,4.3,0.35,8.64,0.47,12.96c0.02,0.69-0.82,1.56-1.56,1.75
		c-0.95,0.24-2.24-0.31-2.5-1.17c-0.3-0.95-0.61-1.92-0.67-2.9c-0.16-2.49-0.27-4.99-0.25-7.49c0.03-3.88-0.92-7.59-1.83-11.3
		c-0.3-1.25-1.29-1.87-2.63-1.8c-0.83,0.04-1.68,0.05-2.49,0.21c-5.79,1.17-11.59,0.67-17.4,0.22c-0.81-0.06-1.62-0.35-2.41-0.57
		c-0.8-0.22-1.57-0.61-2.38-0.71c-4.58-0.6-7.4-3.43-9.51-7.26c-1.48-2.68-2.5-5.45-2.24-8.57c0.07-0.85,0.29-1.61,0.82-2.3
		c2.83-3.7,5.67-7.39,8.46-11.12c1.2-1.61,2.46-3.16,4.05-4.4c0.13-0.1,0.3-0.18,0.39-0.31c1.78-2.49,4.12-4.27,6.9-5.53
		c0.6-0.27,0.53-1.38-0.08-1.64c-0.75-0.33-1.51-0.72-2.31-0.86c-3.8-0.7-7.41-1.9-10.84-3.67c-1.03-0.53-2.17-0.84-3.23-1.33
		c-1.21-0.55-2.41-1.14-3.56-1.8c-1.05-0.59-1.83-1.51-2.17-2.65c-0.68-2.28-0.91-4.65,0.16-6.84c2.1-4.29,4.92-8.07,9.56-9.77
		c4.03-1.47,8.02-3.28,12.49-3.18c1.15,0.03,2.32-0.17,3.47-0.36c2.99-0.51,5.95-0.58,8.91,0.22c0.8,0.21,1.64,0.29,2.47,0.31
		c0.47,0.01,1.1-0.09,1.35-0.4c0.19-0.23,0.01-0.95-0.22-1.3c-0.91-1.39-1.95-2.7-2.86-4.09c-1.38-2.1-2.46-4.36-3.13-6.78
		c-0.77-2.79-0.81-5.58,0.13-8.36c0.57-1.7,1.62-2.94,3.3-3.51c4.1-1.38,8.22-2.72,12.36-3.98c0.75-0.23,1.65-0.1,2.46,0.02
		c1.81,0.26,3.61,0.63,5.42,0.91c0.85,0.13,1.54-0.8,1.3-1.66c-0.09-0.32-0.14-0.66-0.26-0.96c-2.41-5.85-1.74-11.74-0.24-17.63
		c0.44-1.73,1.52-2.83,3.27-3.46c2.83-1.03,5.64-1.97,8.72-1.99c1.31-0.01,2.63-0.38,3.92-0.66c5.26-1.18,10.54-1.4,15.87-0.47
		c1.64,0.28,3.3,0.42,4.96,0.56c0.25,0.02,0.63-0.25,0.75-0.49c0.13-0.25,0.14-0.7,0-0.94c-0.79-1.27-1.68-2.47-2.48-3.74
		c-1.23-1.97-2.49-3.94-3.6-5.99c-1.95-3.58-2.93-7.42-2.71-11.52c0.06-1.16,0.03-2.34,0.17-3.49c0.08-0.63,0.31-1.33,0.7-1.83
		c1.93-2.51,3.87-5.14,6.55-6.81c2.64-1.65,5.09-3.72,8.25-4.52c1.42-0.36,2.71-1.24,4.06-1.9c3.3-1.61,6.64-3.11,10.41-3.18
		c0.66-0.01,1.36-0.02,1.98-0.22c2.91-0.93,5.86-1.2,8.87-0.71c0.16,0.03,0.34,0.03,0.5-0.01c3.97-0.92,7.51,0.74,11.13,1.85
		c0.79,0.24,1.5,0.79,2.3,0.96c4.01,0.86,7.33,3.06,10.67,5.28c1.8,1.2,3.77,2.13,5.56,3.32c1.23,0.82,2.37,1.82,3.43,2.87
		c2,1.99,3.81,4.16,5.92,6.08c1.44,1.31,2.44,3.15,3.5,4.83c0.89,1.41,1.76,2.8,2.85,4.08c0.95,1.11,1.52,2.55,2.31,3.82
		c0.34,0.55,0.78,1.07,1.25,1.52c0.67,0.63,2.19,0.48,2.73-0.22c0.3-0.39,0.58-0.81,0.84-1.23c0.71-1.13,1.35-2.3,2.11-3.38
		c2.08-2.94,5.06-3.76,8.38-3.04c3.25,0.7,6.52,1.53,9.58,2.79c2.73,1.12,5.48,2.4,7.71,4.51c1.08,1.02,2.45,1.74,3.53,2.77
		c4.03,3.82,7.37,8.11,9.08,13.54c0.8,2.55,1.64,5.03,1.9,7.73c0.36,3.63,1.06,7.23,1.56,10.85c0.16,1.15,0.23,2.32,0.24,3.49
		c0.04,2.83,0.06,5.67,0.03,8.5c-0.03,2.5-0.27,4.99-0.94,7.42c-0.27,0.96-0.44,1.95-0.61,2.93c-0.16,0.97,0.8,1.98,1.84,1.88
		c0.98-0.1,1.99-0.23,2.93-0.51c2.55-0.77,5.07-1.65,7.61-2.46c1.43-0.46,2.88-0.82,4.3-1.3c3.34-1.13,6.76-1.75,10.3-1.74
		c1.15,0,2.33-0.2,3.46-0.45c4.7-1.05,8.95,0.06,12.72,2.86c1.72,1.28,3.38,2.8,4.6,4.54c1.96,2.77,2.96,5.99,2.58,9.44
		c-0.2,1.8-0.54,3.67-1.24,5.33c-2.33,5.55-5.29,10.75-9.64,15.02c-1.43,1.4-2.87,2.78-4.31,4.16c-0.24,0.23-0.53,0.4-0.76,0.64
		c-5.78,6.11-6.89,7.01-12.22,9.99c-1.31,0.73-2.66,1.4-3.87,2.26c-1.55,1.09-3.43,1.27-5.06,2.09c-0.66,0.33-1.05,1.02-0.68,1.62
		c2.14,3.49,2.37,7.6,3.71,11.35c0.15,0.43,0.1,1.02-0.06,1.47c-0.15,0.42-0.52,0.82-0.9,1.07c-0.17,0.12-0.65-0.04-0.88-0.21
		c-1.19-0.95-2.05-2.14-2.66-3.55c-0.86-1.99-1.83-3.92-2.77-5.87c-0.21-0.45-0.46-0.89-0.72-1.31c-0.58-0.91-1.99-1.46-3.08-1.18
		c-0.64,0.16-1.26,0.43-1.9,0.61c-1.44,0.41-2.86,0.91-4.33,1.17c-2.75,0.49-3.34,1.16-1.47,3.37c0.61,0.72,0.98,1.74,1.23,2.68
		c1.41,5.48,3.33,10.82,4.32,16.41c0.41,2.29,1.6,4.39,1.55,6.79c-0.01,0.49-0.57,0.97-0.99,0.8c-1.28-0.51-2.47-1.17-2.82-2.6
		c-1.11-4.52-3.14-8.75-4.14-13.32c-0.93-4.26-2.89-8.15-5.37-11.74c-0.35-0.51-0.99-1.02-1.57-1.13c-2.12-0.4-4.26-0.67-6.41-0.92
		c-0.87-0.1-1.51,0.89-1.09,1.75c1.24,2.57,1.84,5.35,2.61,8.06c0.22,0.78,0.37,1.67,0.24,2.45c-0.65,3.96-1.89,7.69-3.93,11.23
		c-2.27,3.94-5.53,6.56-9.38,8.66c-0.44,0.24-0.91,0.41-1.35,0.65c-2.17,1.18-2.47,1.96-1.79,4.5c0.81,3.06,1.64,6.11,2.41,9.18
		c0.2,0.8,0.23,1.64,0.31,2.46c0.06,0.63-0.69,1.26-1.32,1.16c-1.4-0.23-2.59-0.82-3.11-2.19c-0.47-1.24-0.94-2.54-1.04-3.84
		c-0.19-2.58-1.27-4.82-2.27-7.1c-0.45-1.03-1.3-1.5-2.43-1.24c-3.61,0.85-7.26,0.83-10.93,0.85c-2.54,0.01-4.97-0.44-7.35-1.26
		c-1.58-0.54-3.14-1.13-4.72-1.65c-1.44-0.47-2.27-0.26-1.92,1.55c0.38,1.96,0.65,3.94,1.01,5.91c0.98,5.23,1.78,10.5,3.1,15.67
		c0.09,0.36-0.25,1.02-0.59,1.25c-0.35,0.23-1.01,0.28-1.41,0.11c-1.31-0.54-2.08-1.57-2.43-2.96c-0.71-2.91-1.48-5.81-2.19-8.72
		c-0.83-3.4-1.85-6.72-3.21-9.97c-1.02-2.42-1.8-5.03-1.87-7.72c-0.03-1.31-0.64-2.21-1.5-3.02c-0.73-0.68-1.5-1.32-2.28-1.94
		c-2.35-1.87-4.65-3.77-6.54-6.14c-0.82-1.03-1.91-1.83-2.86-2.75c-0.67-0.64-1.07-1.99-2.29-1.36c-0.98,0.51-0.8,1.74-0.8,2.72
		c0,4.82-0.25,9.66,0.77,14.44c0.26,1.23-1.08,2.16-2.31,1.71c-1.01-0.37-1.76-1.03-1.97-2.07c-0.48-2.28-1.24-4.49-1.32-6.86
		c-0.03-0.98-0.33-1.95-0.54-2.92c-0.11-0.5-1.11-1.04-1.63-0.93c-0.16,0.03-0.34,0.03-0.49,0.08c-3.9,1.45-7.8,2.89-11.68,4.39
		c-0.92,0.36-1.81,0.85-2.62,1.42c-0.33,0.23-0.58,0.84-0.56,1.26c0.03,0.65,0.26,1.3,0.5,1.91c0.54,1.4,1.1,2.79,1.73,4.15
		c1.9,4.15,2.43,8.63,3.11,13.07c0.07,0.47,0.03,1.06-0.2,1.46c-0.22,0.37-0.72,0.72-1.15,0.79c-0.85,0.15-1.64-0.17-2.26-0.8
		c-0.95-0.97-1.58-2.1-1.87-3.46c-0.8-3.74-1.61-7.48-2.51-11.2c-0.35-1.44-0.87-2.86-1.47-4.22c-0.58-1.32-1.86-1.89-3.31-1.66
		c-2.47,0.39-4.92,0.87-7.39,1.21c-2.97,0.41-5.94,0.98-8.92,1c-3.31,0.03-6.68-0.12-9.84-1.35c-4.04-1.57-7.2-4.09-8.86-8.26
		c-0.51-1.29-0.82-2.52-0.44-3.88c0.13-0.48,0.24-0.97,0.3-1.47c0.19-1.52-0.7-2.34-2.01-1.83c-0.93,0.36-1.85,0.76-2.75,1.19
		c-1.36,0.63-2.67,1.37-4.05,1.94c-3.23,1.34-6.48,2.63-9.73,3.92c-1.95,0.77-2.01,0.87-1.63,2.89c0.15,0.81,0.25,1.64,0.34,2.46
		c0.06,0.53-0.34,1.17-0.71,1.14c-0.3-0.03-0.61-0.16-0.89-0.29C47.84,174.57,47.48,174.35,46.79,173.96z M44.95,109.99
		c0.16-2.86-1.66-4.26-3.82-5.38c-2.25-1.16-4.6-1.91-7.18-1.87c-2.17,0.03-4.33-0.02-6.5-0.03c-5.96-0.03-11.54,1.37-16.69,4.43
		c-2.05,1.21-3.74,2.77-5.17,4.65c-1.02,1.34-1.73,2.86-1.96,4.54c-0.12,0.86,0.21,1.65,0.9,2.21c0.38,0.31,0.83,0.56,1.28,0.78
		c6.94,3.45,14.18,5.71,22.02,5.68c1.5-0.01,3-0.02,4.5,0.02c1.33,0.03,2.66,0.09,3.99,0.2c1.72,0.15,3.17,0.92,4.45,2.06
		c0.52,0.47,0.43,1.93-0.22,2.24c-0.89,0.43-1.8,0.9-2.76,1.09c-1.46,0.3-2.98,0.33-4.46,0.56c-3.19,0.49-6.13,1.48-8.4,3.98
		c-0.89,0.98-1.93,1.84-3,2.63c-5.53,4.15-9.91,9.36-13.71,15.08c-0.55,0.83-1.03,1.72-1.44,2.63c-0.86,1.92-0.86,3.87-0.05,5.83
		c0.8,1.93,2.1,3.5,3.97,4.31c2.12,0.93,4.4,1.5,6.61,2.23c4.31,0,8.6,1.26,12.93,0.2c3.09,0.11,5.91-0.82,8.55-2.33
		c0.75-0.43,1.52-0.6,2.38-0.56c2.56,0.13,4.92-0.43,7.11-1.84c1.69-1.09,3.63-1.7,5.59-2.11c1.67-0.35,3.13-1.1,4.6-1.88
		c3.09-1.63,6.07-3.55,9.32-4.74c3.69-1.35,6.78-3.48,9.79-5.86c1.69-1.34,3.35-2.73,5.04-4.07c2.09-1.66,3.58-1.76,5.96-0.36
		c0.56,0.33,1.05,0.81,1.53,1.26c0.66,0.63,0.72,2.15,0.04,2.74c-0.74,0.65-1.53,1.29-2.4,1.73c-3.63,1.86-6.51,4.6-9.21,7.58
		c-1.94,2.14-3.3,4.66-4.34,7.26c-1.22,3.06-0.47,4.54,1.93,5.93c1,0.58,2.08,1.06,3.16,1.46c2.71,0.99,5.58,0.96,8.39,0.92
		c2.31-0.03,4.62-0.54,6.93-0.84c2.23-1.5,4.9-0.56,7.27-1.28c0.64-0.19,1.27-0.4,1.91-0.59c0.64-0.19,1.28-0.42,1.93-0.51
		c1.32-0.18,2.71-0.06,3.96-0.44c1.41-0.43,2.69-1.28,4.04-1.91c0.6-0.28,1.26-0.45,1.86-0.73c3.47-1.6,7.11-2.85,10.38-4.89
		c0.87-0.54,1.65-1.09,2.21-1.96c1.34-2.11,2.68-4.21,4.03-6.31c0.41-0.64,1.61-0.88,2.24-0.46c1.71,1.12,3.03,2.55,3.85,4.46
		c1.41,3.27,3.64,5.95,6.31,8.27c2.51,2.19,4.99,4.41,7.51,6.59c0.63,0.54,1.32,1.01,2.03,1.44c1.85,1.12,3.65,2.36,5.62,3.25
		c3.03,1.37,6.15,2.64,9.55,2.7c2.5,0.04,5.01,0.09,7.49-0.15c5.18-0.5,10.16-1.82,14.62-4.64c1.26-0.8,2.34-1.91,3.63-2.64
		c2.73-1.55,4.38-3.97,5.97-6.56c1.37-2.23,1.82-4.56,1.98-7.1c0.21-3.58-1.01-6.52-3.44-9.05c-2.2-2.29-4.44-4.53-7.44-5.79
		c-1.66-0.7-2.65-1.96-3.12-3.66c-0.18-0.64-0.43-1.27-0.54-1.92c-0.05-0.28,0.08-0.76,0.29-0.88c0.39-0.23,0.89-0.3,1.35-0.39
		c0.14-0.03,0.33,0.06,0.47,0.14c2.01,1.17,4.01,2.36,6.02,3.53c0.86,0.5,1.67,1.2,2.6,1.45c4.63,1.26,9.23,2.73,14.19,1.98
		c1.17-0.18,2.23-0.66,3.36-0.79c4.66-0.55,9.08-1.91,13.47-3.5c1.76-0.64,3.37-1.27,4.75-2.57c0.7-0.67,1.64-1.11,2.52-1.55
		c1.34-0.67,2.8-1.13,4.07-1.9c2.66-1.6,5.88-2.45,7.61-5.39c0.16-0.27,0.47-0.49,0.76-0.64c2.47-1.25,3.9-3.57,5.7-5.5
		c0.57-0.61,0.93-1.44,1.58-1.92c2.99-2.24,5.15-5.15,7.03-8.32c0.25-0.43,0.61-0.79,0.94-1.16c1.59-1.81,1.45-4.37,2.75-6.34
		c0.52-0.79,0.63-1.88,0.78-2.86c0.12-0.81,0.13-1.67,0.02-2.49c-0.24-1.75-1.06-3.25-2.75-3.89c-2.49-0.94-5.02-1.83-7.6-2.42
		c-1.92-0.43-3.98-0.58-5.94-0.43c-3.31,0.24-6.6,0.8-9.89,1.25c-2.33,0.32-4.55,0.89-6.58,2.2c-1.1,0.71-2.42,1.08-3.66,1.54
		c-3.73,1.39-7.63,2.28-11.3,3.9c-1.99,0.87-3.93,1.77-5.79,2.9c-1.62,0.99-3.45,0.24-3.99-1.56c-0.24-0.79-0.39-1.62-0.43-2.44
		c-0.08-1.75,0.42-3.27,1.93-4.37c0.66-0.49,1.31-1.05,1.81-1.7c3.3-4.3,5.3-9.37,5.39-14.77c0.12-6.49,0.31-12.98-0.96-19.42
		c-0.9-4.57-1.48-9.21-4.27-13.16c-0.66-2.35-2.32-3.98-3.97-5.66c-1.31-1.34-2.97-2.14-4.38-3.27c-4.31-3.43-9.44-4.85-14.61-6.16
		c-2.67-0.68-4.91,0.13-6.58,2.42c-2,2.72-3.46,5.69-4.31,8.96c-0.63,2.42-1.14,4.86-1.19,7.38c-0.04,1.66-0.15,3.33-0.82,4.9
		c-0.29,0.68-1.17,1.16-2.07,1.07c-0.64-0.07-1.42-0.6-1.53-1.1c-0.14-0.65-0.33-1.3-0.34-1.96c-0.05-2.67-0.09-5.33-0.03-8
		c0.07-3.23-0.55-6.25-2.07-9.14c-1.08-2.06-1.98-4.19-3.65-5.91c-0.8-0.82-1.39-1.87-1.99-2.87c-1.12-1.87-2.46-3.55-4.02-5.08
		c-1.19-1.16-2.37-2.34-3.51-3.56c-1.6-1.72-3.4-3.17-5.44-4.35c-1.58-0.92-3.17-1.86-4.62-2.97c-2-1.55-4.27-2.56-6.49-3.71
		c-2.39-1.24-4.83-2.12-7.54-2.25c-0.81-0.04-1.59-0.5-2.41-0.63c-3.28-0.51-6.52-1.48-9.89-1.22c-5.53,0.43-10.84,1.75-15.87,4.09
		c-1.21,0.56-2.37,1.23-3.6,1.73c-3.77,1.52-6.76,4.22-9.98,6.57c-0.66,0.48-1.16,1.19-1.75,1.78c-1.61,1.64-2.25,3.64-2.28,5.9
		c-0.06,4.51,1.53,8.5,3.99,12.15c3.17,4.69,6.47,9.29,9.71,13.94c0.28,0.41,0.5,0.86,0.72,1.31c0.36,0.72,0.09,2.13-0.56,2.8
		c-0.64,0.65-1.5,0.74-2.32,0.56c-0.63-0.14-1.27-0.43-1.8-0.8c-1.96-1.35-4.06-2.25-6.47-2.41c-0.82-0.05-1.63-0.33-2.44-0.53
		c-4.57-1.13-9.19-1.48-13.89-1.05c-1.32,0.12-2.65,0.06-3.98,0.11c-0.49,0.02-1.01,0.03-1.46,0.19c-1.89,0.62-3.82,1.18-5.64,1.98
		c-3.82,1.67-6.05,3.61-6,8.8c0.01,1.32,0.12,2.67,0.4,3.96c1.18,5.34,3.55,10.01,7.88,13.56c1.02,0.83,1.86,1.89,2.7,2.92
		c0.62,0.76,0.12,2.15-0.8,2.5c-0.99,0.38-1.97,0.44-2.86-0.18c-0.82-0.57-1.61-1.19-2.35-1.86c-4.33-3.95-9.61-5.09-15.25-5.17
		c-1.34-0.02-2.65,0.18-3.92,0.66c-2.49,0.94-5.01,1.8-7.51,2.74c-0.83,0.31-1.38,1.01-1.54,1.85c-0.19,0.96-0.34,2-0.2,2.95
		c0.27,1.81,0.82,3.56,1.67,5.21c1.62,3.14,3.72,5.91,6.16,8.45c1.72,1.8,3.32,3.73,4.97,5.6c2.09,2.37,4.11,4.84,7.36,5.74
		c0.12,0.03,0.18,0.27,0.27,0.41c-0.34,0.66-1.03,0.77-1.64,0.92c-2.35,0.57-4.61,0.75-6.45-1.33c-0.47-0.53-1.19-0.47-1.87-0.27
		C46.2,109.77,45.72,109.84,44.95,109.99z"/>
	<path d="M75.21,188.82c0.09,0.98,0.21,1.96,0.26,2.94c0.06,1.32,0.1,2.63,0.09,3.95c-0.01,0.8-0.74,1.51-1.56,1.69
		c-1.1,0.24-2.28-0.14-2.58-0.97c-0.94-2.63-2.29-5.08-2.65-7.95c-0.52-4.08-1.88-8.04-1.82-12.21c0.01-0.66,0.07-1.32,0.13-1.97
		c0.06-0.58,1.01-1.12,1.52-0.88c0.3,0.14,0.64,0.2,0.9,0.4c2.71,2.08,4.68,4.67,5.22,8.12c0.35,2.27,0.55,4.57,0.81,6.86
		C75.41,188.8,75.31,188.81,75.21,188.82z"/>
	<path d="M131.57,191.81c-0.23,0.89,0.06,1.64,0.68,2.27c0.82,0.83,1.75,1.56,2.45,2.48c0.48,0.63,1,1.56,0.88,2.24
		c-0.53,3,0.15,5.97,0.04,8.95c-0.03,0.66-0.02,1.37-0.26,1.96c-0.15,0.39-0.69,0.81-1.1,0.87c-1.6,0.22-3.18-0.66-3.73-1.94
		c-0.13-0.31-0.26-0.62-0.34-0.94c-1-4.02-2.39-7.96-2.28-12.19c0.05-2.04-0.78-3.9-1.23-5.84c-0.14-0.62-0.13-1.29-0.05-1.93
		c0.03-0.21,0.46-0.46,0.75-0.52c0.3-0.06,0.7-0.02,0.94,0.15c0.82,0.55,1.62,1.15,2.39,1.79
		C131.54,189.83,131.91,190.72,131.57,191.81z"/>
	<path d="M60.26,214c-0.29,0.21-0.61,0.59-1.01,0.72c-0.66,0.21-1.32,0.03-1.83-0.46c-0.35-0.34-0.66-0.74-0.93-1.16
		c-0.53-0.84-0.85-1.87-1.54-2.54c-2.05-1.99-2.63-4.48-2.91-7.18c-0.26-2.47-0.77-4.9-1.1-7.36c-0.11-0.81-0.02-1.64,0-2.46
		c0.01-0.41,0.78-0.86,1.12-0.7c2.04,0.95,3.68,2.29,4.16,4.61c0.63,3.08,1.94,5.97,2.38,9.11C58.94,209.02,59.66,211.41,60.26,214z
		"/>
	<path d="M207.24,182.78c2.74,1.33,4.06,2.63,4.23,4.62c0.37,4.26,2.14,8.01,3.95,11.76c0.72,1.5,1.43,3.01,2.02,4.56
		c0.22,0.59,0.11,1.3,0.12,1.96c0.01,0.37-0.84,0.72-1.21,0.55c-1.26-0.59-2.14-1.55-2.75-2.79c-0.8-1.64-1.6-3.29-2.43-4.92
		c-1.44-2.82-3.24-5.41-5.1-7.97c-0.84-1.15-1.31-2.36-0.1-3.58c0.63-0.63,0.79-1.43,0.9-2.27
		C206.95,184.07,207.1,183.46,207.24,182.78z"/>
	<path d="M101.86,216.01c-0.03,0.27-0.08,0.76-0.13,1.25c-0.08,0.78-1.07,1.27-1.9,0.99c-1.83-0.62-3.15-1.78-3.8-3.61
		c-0.33-0.93-0.73-1.88-0.81-2.85c-0.3-3.47-1.25-6.81-1.96-10.2c-0.4-1.94-0.13-3.04,0.63-3.04c1.16,0,1.74,0.84,2.28,1.63
		c0.56,0.81,1.2,1.66,1.42,2.58c0.52,2.12,1.5,4.03,2.56,5.88C101.43,210.88,101.83,213.27,101.86,216.01z"/>
	<path d="M244.11,191.37c0.06,0.49,0.14,0.98,0.19,1.47c0.12,1.2-0.17,2.05-0.69,2.16c-0.95,0.19-1.5-0.5-2.13-0.98
		c-1.1-0.84-1.82-1.97-2.03-3.31c-0.85-5.54-2.75-10.9-2.77-16.57c0-0.25,0.22-0.64,0.43-0.72c0.25-0.1,0.68-0.02,0.91,0.15
		c0.52,0.4,1.07,0.83,1.41,1.37c1.68,2.65,3.21,5.35,3.54,8.61c0.26,2.62,0.87,5.2,1.32,7.8
		C244.22,191.35,244.17,191.36,244.11,191.37z"/>
	<path d="M175.08,199.77c2.77,0.92,4.16,2.41,4.82,4.6c0.19,0.63,0.44,1.26,0.55,1.9c0.61,3.57,1.21,7.15,1.74,10.73
		c0.06,0.4-0.23,0.94-0.51,1.3c-0.33,0.41-1.47,0.3-1.82-0.12c-1.37-1.65-2.78-3.32-2.9-5.59
		C176.74,208.47,175.99,204.43,175.08,199.77z"/>
	<path d="M113.8,110.69c3.11,0.45,6.29,0.65,9.31,1.44c2.53,0.66,5,1.83,7.28,3.14c2.29,1.31,4.46,2.87,6.36,4.77
		c1.17,1.17,2.43,2.26,3.68,3.36c1.38,1.21,2.56,2.59,3.55,4.14c0.24,0.38-0.03,1.12-0.44,1.22c-1.36,0.32-2.64,0.22-3.77-0.68
		c-1.68-1.34-3.33-2.73-5.05-4.03c-2.4-1.82-5.1-3.07-7.86-4.24c-1.75-0.75-3.52-0.92-5.36-0.7c-4.61,0.55-9.22,1.09-13.83,1.68
		c-4.94,0.63-9.87,1.27-14.37,3.7c-1.6,0.86-3.41,1.29-5.27,1.35c-0.96,0.04-1.97-0.78-2.09-1.76c-0.15-1.2-0.02-2.31,1.07-3.11
		c0.8-0.58,1.61-1.18,2.34-1.84c4.71-4.25,10.32-6.51,16.51-7.5C108.49,111.21,111.08,110.54,113.8,110.69z"/>
	<path d="M122.06,84.33c-0.93,1.11-2.23,1.44-3.56,1.55C117,86,115.5,85.97,114,86c-0.86,0.02-1.6,0.22-2.21,0.91
		c-0.67,0.76-1.47,0.54-2.25,0.11c-1.62-0.9-2.42-2.22-2.14-4.11c0.21-1.47,0.41-2.94,0.62-4.43c0.9-0.59,1.7-1.16,2.55-1.66
		c2.92-1.73,6.36-1.23,8.61,1.25c0.44,0.49,0.84,1.06,1.09,1.66C120.92,81.24,121.47,82.79,122.06,84.33z"/>
	<path d="M159.16,89.56c-0.4-0.03-0.9-0.03-1.38-0.1c-2.13-0.31-4.25-0.66-6.37-0.97c-1.23-0.18-2.13-0.84-2.84-1.81
		c-0.58-0.79-0.55-2.05,0.04-2.78c2.74-3.35,6.24-4.41,10.21-0.64c1.2,1.14,2.32,2.35,3.44,3.56c0.55,0.59,0.18,1.67-0.64,2.01
		c-0.46,0.19-0.91,0.39-1.38,0.54C159.92,89.49,159.58,89.5,159.16,89.56z"/>
</g>
</svg>
